<svg width="24" height="24" viewBox="0 0 24 24" fill="none" xmlns="http://www.w3.org/2000/svg">
<g id="Cannabis Slider Find Perfect Match">
<g id="Group">
<path id="Vector" d="M10 18C11.1046 18 12 17.1046 12 16C12 14.8954 11.1046 14 10 14C8.89543 14 8 14.8954 8 16C8 17.1046 8.89543 18 10 18Z" stroke="#6E2DFA" stroke-width="1.5" stroke-linecap="round" stroke-linejoin="round"/>
<path id="Vector_2" d="M7.5 16L3 16" stroke="#6E2DFA" stroke-width="1.5" stroke-linecap="round" stroke-linejoin="round"/>
<path id="Vector_3" d="M21 16L12 16" stroke="#6E2DFA" stroke-width="1.5" stroke-linecap="round" stroke-linejoin="round"/>
</g>
<g id="Group_2">
<path id="Vector_4" d="M17 23C18.1046 23 19 22.1046 19 21C19 19.8954 18.1046 19 17 19C15.8954 19 15 19.8954 15 21C15 22.1046 15.8954 23 17 23Z" stroke="#6E2DFA" stroke-width="1.5" stroke-linecap="round" stroke-linejoin="round"/>
<path id="Vector_5" d="M15 21L3 21" stroke="#6E2DFA" stroke-width="1.5" stroke-linecap="round" stroke-linejoin="round"/>
<path id="Vector_6" d="M21 21L19 21" stroke="#6E2DFA" stroke-width="1.5" stroke-linecap="round" stroke-linejoin="round"/>
</g>
<g id="Group_3">
<path id="Vector_7" d="M5.5698 11.6008C4.9726 11.3369 4.43778 10.9511 4 10.4684C4.43736 9.98575 4.97177 9.59992 5.56858 9.33594C6.16538 9.07197 6.81128 8.93574 7.46438 8.9361C7.94482 8.9432 8.42119 9.02506 8.87619 9.17873C8.34682 8.89786 7.85956 8.54465 7.42857 8.12938C6.33596 7.08292 5.68255 5.66323 5.6 4.1564C7.12245 4.23591 8.55968 4.88029 9.62819 5.96243C10.0568 6.42231 10.4595 6.90553 10.8343 7.40984C10.2709 6.36786 10.0794 5.16647 10.2911 4.00212C10.5029 2.83778 11.1053 1.77938 12 1C12.5628 1.49345 13.0138 2.10039 13.3229 2.78053C13.6319 3.46067 13.7921 4.19846 13.7928 4.94493C13.7921 5.74677 13.6054 6.53764 13.2472 7.25593C13.2472 7.25593 13.949 6.37945 14.3718 5.96243C15.4403 4.88029 16.8776 4.23591 18.4 4.1564C18.3175 5.66323 17.664 7.08292 16.5714 8.12938C16.1396 8.54501 15.6513 8.89825 15.1208 9.17873C15.576 9.02513 16.0527 8.94327 16.5333 8.9361C17.1868 8.93543 17.8332 9.07149 18.4304 9.33548C19.0276 9.59946 19.5624 9.98546 20 10.4684C19.6745 10.829 18.9156 11.2595 18.5 11.5" stroke="#6E2DFA" stroke-width="1.5" stroke-linecap="round" stroke-linejoin="round"/>
</g>
</g>
</svg>
