<svg width="477" height="201" viewBox="0 0 477 201" fill="none" xmlns="http://www.w3.org/2000/svg">
<path d="M58.4426 143.583C54.6795 141.478 52.7997 137.814 52.7997 132.583C52.7997 129.267 53.6278 125.57 55.2864 121.487C57.5818 124.039 59.716 125.824 61.6954 126.843C63.671 127.865 65.8076 128.373 68.1034 128.373C74.4797 128.373 79.2296 124.805 82.3555 117.66C85.4799 110.518 87.0428 102.612 87.0428 93.9365C87.0428 77.7406 80.9839 69.6396 68.869 69.6396C65.4258 69.6396 62.4903 69.8306 60.069 70.2134L44.3825 143.488H16.8345L42.8517 21.8105L71.1644 17.9837L62.1729 60.4561H63.3209C68.1669 60.4561 72.6946 58.895 76.9035 55.7689C81.1123 52.6453 84.4897 48.69 87.0428 43.9071C89.5925 39.1242 90.8689 34.3115 90.8689 29.4627C90.8689 23.5982 88.7942 18.6858 84.6513 14.7316C80.5054 10.7793 74.1594 8.80066 65.6172 8.80066C57.8357 8.80066 50.2465 10.5556 42.8517 14.0616C35.4535 17.571 29.4278 22.8325 24.7737 29.8455C20.1166 36.8609 17.7915 45.3422 17.7915 55.2904C17.7915 60.0113 18.2363 63.2961 19.1298 65.1433C20.0214 66.9935 20.4696 68.0463 20.4696 68.3002C13.7081 68.3002 8.60863 66.931 5.16489 64.1863C1.72163 61.4459 0 56.9496 0 50.6989C0 42.0267 3.25186 33.8007 9.75606 26.0187C16.2603 18.241 24.8689 11.957 35.5824 7.17413C46.2955 2.39121 57.5818 0 69.4427 0C78.3688 0 85.8949 1.40533 92.0163 4.20916C98.1387 7.01543 102.697 10.7143 105.694 15.3053C108.69 19.8973 110.19 24.9366 110.19 30.4192C110.19 36.2872 108.531 41.9642 105.217 47.4468C101.898 52.9319 97.1817 57.3955 91.0603 60.839C98.7124 62.2433 104.386 65.783 108.086 71.4571C111.784 77.1336 113.634 83.8624 113.634 91.6405C113.634 98.9104 112.262 106.821 109.521 115.364C106.777 123.91 102.251 131.276 95.9381 137.46C89.6253 143.646 81.5576 146.739 71.7381 146.739C66.6357 146.739 62.2032 145.688 58.4426 143.583Z" fill="#4A546F"/>
<path d="M124.439 138.895C120.676 135.068 118.796 129.329 118.796 121.676C118.796 118.49 119.307 114.343 120.326 109.241L133.335 47.8281H160.883L147.109 112.875C146.726 114.789 146.535 116.577 146.535 118.232C146.535 123.464 148.448 126.077 152.274 126.077C155.843 126.077 158.904 124.579 161.456 121.581C164.007 118.585 166.048 114.472 167.578 109.241L180.587 47.8281H208.134L194.361 112.875C193.849 114.789 193.595 116.83 193.595 118.998C193.595 121.551 194.199 123.368 195.413 124.451C196.623 125.536 198.632 126.077 201.439 126.077C205.008 126.077 208.102 124.546 210.717 121.486C213.33 118.424 215.404 114.343 216.934 109.241H224.97C220.25 123.015 214.415 132.36 207.465 137.268C200.512 142.18 193.53 144.634 186.518 144.634C181.032 144.634 176.665 143.103 173.413 140.043C170.161 136.981 168.214 132.455 167.578 126.459C163.241 133.475 158.683 138.258 153.9 140.808C149.117 143.361 144.24 144.634 139.266 144.634C133.144 144.634 128.2 142.72 124.439 138.895Z" fill="#4A546F"/>
<path d="M261.603 121.865C264.726 119.062 266.863 115.169 268.011 110.195V109.239L277.386 65.4271C276.238 60.9641 273.622 58.7306 269.542 58.7306C264.44 58.7306 259.849 61.6965 255.769 67.6274C251.685 73.5574 248.498 80.7022 246.203 89.0546C243.908 97.4094 242.76 104.775 242.76 111.152C242.76 117.53 243.683 121.611 245.534 123.396C247.38 125.183 249.647 126.074 252.325 126.074C255.385 126.074 258.476 124.672 261.603 121.865ZM221.717 137.171C216.872 132.196 214.447 124.418 214.447 113.83C214.447 104.393 216.33 94.4767 220.09 84.0803C223.852 73.6863 229.465 64.8861 236.925 57.6788C244.386 50.4744 253.282 46.8697 263.612 46.8697C268.84 46.8697 272.729 47.7633 275.281 49.5476C277.83 51.3352 279.108 53.6937 279.108 56.6265V57.3916L288.48 13.3888L316.794 9.5625L294.795 112.873C294.283 114.787 294.029 116.828 294.029 118.996C294.029 121.549 294.632 123.366 295.846 124.448C297.056 125.534 299.066 126.074 301.873 126.074C305.441 126.074 308.535 124.543 311.15 121.483C313.763 118.422 315.837 114.341 317.368 109.239H325.402C317.621 132.071 304.805 143.484 286.951 143.484C281.72 143.484 277.481 142.082 274.228 139.274C270.977 136.471 268.968 132.387 268.203 127.031C264.885 132.133 260.901 136.343 256.247 139.658C251.589 142.976 246.137 144.632 239.89 144.632C232.621 144.632 226.562 142.144 221.717 137.171Z" fill="#4A546F"/>
<path d="M364.618 118.709C368.062 113.8 370.802 107.678 372.844 100.342C374.882 93.0098 375.905 85.9637 375.905 79.2017C375.905 74.1018 375.011 69.7647 373.226 66.1923C371.439 62.6233 368.953 60.8352 365.766 60.8352C363.853 60.8352 361.715 61.1223 359.358 61.6965C356.996 62.2703 355.37 63.1312 354.478 64.2791L343.958 112.873C343.574 114.404 343.384 115.872 343.384 117.274C343.384 123.141 346.761 126.074 353.523 126.074C357.474 126.074 361.175 123.62 364.618 118.709ZM322.914 138.223C318.323 133.95 316.027 127.924 316.027 120.143C316.027 116.317 316.475 112.682 317.366 109.239L337.835 13.3883L366.149 9.5625L356.966 52.6087C360.535 50.4412 363.47 49.0065 365.766 48.3044C368.062 47.6046 370.357 47.2516 372.652 47.2516C387.7 47.2516 395.226 58.1568 395.226 79.9668C395.226 88.7675 393.535 98.1751 390.157 108.186C386.777 118.2 381.166 126.776 373.322 133.918C365.48 141.062 355.307 144.632 342.81 144.632C334.135 144.632 327.505 142.498 322.914 138.223Z" fill="#4A546F"/>
<path d="M459.502 87.2381C459.23 89.2269 458.905 91.1391 458.554 93.0156C458.456 93.545 458.37 94.0611 458.263 94.6012C458.239 94.7242 458.212 94.8228 458.187 94.9415C456.559 102.847 454.194 109.722 451.086 115.553C447.002 123.206 442.602 127.032 437.885 127.032C434.184 127.032 431.635 125.98 430.233 123.875C428.828 121.771 428.128 117.658 428.128 111.536C428.128 105.031 429.307 97.4734 431.668 88.8646C434.026 80.2553 437.12 72.9225 440.946 66.8632C444.772 60.8068 448.79 57.7759 452.998 57.7759C455.418 57.7759 457.174 58.5743 458.258 60.1671C458.94 61.172 459.457 62.6706 459.811 64.6595L459.812 64.659C459.812 64.659 459.825 64.7425 459.844 64.868C460.035 65.9906 460.178 67.2548 460.267 68.6806C460.251 68.6884 460.237 68.6992 460.221 68.707C460.47 72.5558 460.553 78.9794 459.472 87.2239C459.482 87.2278 459.491 87.2341 459.502 87.2381ZM475.809 71.9205C475.794 71.9244 475.779 71.9298 475.763 71.9332C474.615 54.7147 466.515 46.1055 451.467 46.1055C439.35 46.1055 429.402 49.9645 421.625 57.6802C413.844 65.3983 408.232 74.5158 404.789 85.0387C401.346 95.5607 399.624 105.222 399.624 114.023C399.624 124.482 402.366 132.134 407.851 136.98C413.333 141.83 420.794 144.25 430.233 144.25C438.268 144.25 445.6 141.796 452.233 136.885C458.863 131.976 464.252 124.994 468.398 115.936C472.541 106.881 474.998 96.3586 475.763 84.3683C476.159 78.9701 476.025 74.7341 475.809 71.9205Z" fill="#4A546F"/>
<path d="M73.693 196.763L76.3404 193.614C78.7382 195.69 81.1361 196.871 84.2498 196.871C86.9685 196.871 88.6862 195.618 88.6862 193.721V193.65C88.6862 191.861 87.6847 190.894 83.0325 189.82C77.7007 188.531 74.6949 186.958 74.6949 182.34V182.269C74.6949 177.974 78.2734 175.004 83.2469 175.004C86.8972 175.004 89.7955 176.114 92.3365 178.153L89.9752 181.481C87.7204 179.8 85.4656 178.905 83.1756 178.905C80.599 178.905 79.0966 180.23 79.0966 181.875V181.948C79.0966 183.879 80.2416 184.738 85.0364 185.884C90.3326 187.172 93.0879 189.069 93.0879 193.22V193.292C93.0879 197.98 89.4025 200.771 84.1419 200.771C80.3129 200.771 76.6988 199.447 73.693 196.763Z" fill="#4A546F"/>
<path d="M104.359 175.363H109.047L116.669 187.209L124.292 175.363H128.979V200.415H124.578V182.45L116.669 194.259H116.527L108.69 182.522V200.415H104.359V175.363Z" fill="#4A546F"/>
<path d="M161.969 187.954V187.882C161.969 183.015 158.427 178.972 153.453 178.972C148.479 178.972 145.008 182.944 145.008 187.811V187.882C145.008 192.749 148.551 196.794 153.525 196.794C158.499 196.794 161.969 192.822 161.969 187.954ZM140.392 187.954V187.882C140.392 180.832 145.831 174.928 153.525 174.928C161.218 174.928 166.586 180.761 166.586 187.811V187.882C166.586 194.932 161.147 200.839 153.453 200.839C145.759 200.839 140.392 195.005 140.392 187.954Z" fill="#4A546F"/>
<path d="M177.999 175.363H182.4V187.96L194.316 175.363H199.719L189.306 186.136L200.184 200.415H194.853L186.301 189.142L182.4 193.15V200.415H177.999V175.363Z" fill="#4A546F"/>
<path d="M210.024 175.363H228.598V179.3H214.426V185.813H226.986V189.751H214.426V196.478H228.776V200.415H210.024V175.363Z" fill="#4A546F"/>
<path d="M255.224 196.763L257.871 193.614C260.269 195.69 262.667 196.871 265.779 196.871C268.5 196.871 270.218 195.618 270.218 193.721V193.65C270.218 191.861 269.215 190.894 264.563 189.82C259.232 188.531 256.225 186.958 256.225 182.34V182.269C256.225 177.974 259.804 175.004 264.778 175.004C268.427 175.004 271.326 176.114 273.868 178.153L271.505 181.481C269.251 179.8 266.997 178.905 264.707 178.905C262.13 178.905 260.626 180.23 260.626 181.875V181.948C260.626 183.879 261.772 184.738 266.567 185.884C271.863 187.172 274.619 189.069 274.619 193.22V193.292C274.619 197.98 270.933 200.771 265.672 200.771C261.845 200.771 258.229 199.447 255.224 196.763Z" fill="#4A546F"/>
<path d="M300.525 190.461L296.196 180.441L291.902 190.461H300.525ZM294.227 175.18H298.306L309.328 200.41H304.676L302.135 194.362H290.29L287.715 200.41H283.206L294.227 175.18Z" fill="#4A546F"/>
<path d="M313.981 175.363H318.848L326.399 194.618L333.913 175.363H338.672L328.259 200.594H324.395L313.981 175.363Z" fill="#4A546F"/>
<path d="M346.54 175.363H351.407L358.957 194.618L366.472 175.363H371.231L360.817 200.594H356.953L346.54 175.363Z" fill="#4A546F"/>
<path d="M388.267 190.538L378.318 175.363H383.508L390.521 186.457L397.606 175.363H402.652L392.704 190.43V200.415H388.267V190.538Z" fill="#4A546F"/>
</svg>
