<svg width="16" height="16" viewBox="0 0 16 16" fill="none" xmlns="http://www.w3.org/2000/svg">
<g id="Logo Icon" clip-path="url(#clip0_1_17096)">
<path id="Logo" fill-rule="evenodd" clip-rule="evenodd" d="M8 15.4512C3.89182 15.4512 0.548815 12.1082 0.548815 8C0.548815 3.89182 3.89099 0.548815 8 0.548815C12.1082 0.548815 15.4512 3.89099 15.4512 8C15.4512 12.1082 12.1082 15.4512 8 15.4512ZM7.79451 9.63559C7.44534 7.75191 7.25321 7.54808 6.82385 7.0118C6.75619 7.27159 6.69938 7.39772 6.37778 7.26908C5.94675 7.09617 5.36703 6.4847 5.30438 6.37026C5.28683 6.58912 5.286 6.83888 5.3971 7.05774C5.09805 6.88483 4.56928 6.5106 4.34458 6.10128C4.29863 6.32181 4.26355 6.55404 4.2978 6.77456C4.08312 6.58828 3.4658 6.15475 3.30291 5.75462C3.25196 5.99186 3.22356 6.16477 3.29957 6.36358C2.52522 5.75211 2.32975 4.94769 2.25039 4.175C1.77342 7.92566 4.34792 7.12708 6.26083 8.07518C6.75368 8.32077 7.25488 8.76015 7.79451 9.63559ZM8.20549 9.63559C8.55466 7.75191 8.74679 7.54808 9.17615 7.0118C9.24381 7.27159 9.30062 7.39772 9.62222 7.26908C10.0533 7.09617 10.633 6.4847 10.6956 6.37026C10.7132 6.58912 10.714 6.83888 10.6029 7.05774C10.902 6.88483 11.4307 6.5106 11.6554 6.10128C11.7014 6.32181 11.7365 6.55404 11.7022 6.77456C11.9169 6.58828 12.5342 6.15475 12.6971 5.75462C12.748 5.99186 12.7764 6.16477 12.7004 6.36358C13.4748 5.75211 13.6703 4.94769 13.7496 4.175C14.2266 7.92566 11.6521 7.12708 9.73917 8.07518C9.24548 8.32077 8.74512 8.76015 8.20549 9.63559ZM9.66983 5.16738L10.2888 1.35742C8.81696 0.850371 7.18471 0.850371 5.71202 1.35742L6.33017 5.16738C6.92827 5.31106 7.47959 6.123 8 7.38853C8.52041 6.12217 9.07173 5.31022 9.66983 5.16738ZM12.5442 5.34113L13.2066 3.28454C13.129 3.1985 13.0488 3.11496 12.9669 3.0331C12.2953 2.36149 11.4884 1.82521 10.5904 1.46852L10.0332 5.03623C10.8928 4.8842 11.7231 5.06631 12.5442 5.34113ZM13.2994 7.28997L14.9065 6.71275C14.7954 6.11047 14.6067 5.53576 14.3527 4.99781C14.3051 5.80808 14.0462 6.58578 13.2994 7.28997ZM14.3368 9.29728L14.8999 9.31899C14.9558 9.02328 14.9934 8.72089 15.0118 8.41266L14.5256 8.3759C14.5265 8.6407 14.4212 8.99238 14.3368 9.29728ZM14.9542 7.00595L13.0379 8.16122L15.0243 8.00585V7.99916C15.0243 7.66252 15.0001 7.3309 14.9542 7.00595ZM12.7029 11.5844L13.585 12.2594C14.1957 11.4591 14.6392 10.5244 14.8614 9.50694L14.2809 9.43176C13.925 10.3473 13.3996 11.0582 12.7029 11.5844ZM10.8694 12.4615L12.3145 13.5433C12.5434 13.3645 12.7614 13.1724 12.9669 12.9669C13.1081 12.8257 13.2426 12.6787 13.3712 12.5267L13.372 12.5242L12.4682 11.7507C12.0038 12.0589 11.4708 12.2936 10.8694 12.4615ZM9.80265 12.6787C9.51697 13.7296 8.97567 14.5006 8.08687 14.7963V15.0235C9.56124 15.006 10.9262 14.5332 12.0489 13.7404L10.506 12.5526C10.2805 12.6035 10.0457 12.6453 9.80265 12.6787ZM9.61136 8.45192L9.19035 10.2086C11.4792 10.3682 12.2794 9.41088 12.3989 7.94403L11.0757 8.18544C11.1367 8.28568 11.1718 8.40263 11.1718 8.52877C11.1718 8.89381 10.8761 9.18952 10.511 9.18952C10.146 9.18952 9.85027 8.89381 9.85027 8.52877C9.85027 8.487 9.85444 8.44607 9.86196 8.40681L9.61136 8.45192ZM13.6828 8.40764L12.9393 8.40347C12.5952 10.3807 11.211 10.8343 9.60802 10.8794L8.97651 12.4849C11.9837 12.3471 13.5817 10.4709 13.6828 8.40764ZM9.00908 9.77592L8 10.3849L6.99092 9.77592L6.75953 10.9395L8 13.3829L9.24047 10.9395L9.00908 9.77592ZM5.96763 5.03623L5.41046 1.46852C4.51248 1.82521 3.70554 2.36149 3.03394 3.0331C2.95207 3.11496 2.87188 3.19933 2.79419 3.28454L3.45661 5.34113C4.27691 5.06631 5.10724 4.8842 5.96763 5.03623ZM1.64728 4.99864C1.3925 5.5366 1.20455 6.11131 1.09345 6.71358L2.70064 7.2908C1.95385 6.58578 1.69489 5.80808 1.64728 4.99864ZM1.47437 8.3759L0.988201 8.41266C1.00574 8.72089 1.04333 9.02328 1.10014 9.31899L1.66315 9.29728C1.57795 8.99238 1.47353 8.6407 1.47437 8.3759ZM1.04584 7.00595C0.999896 7.3309 0.975671 7.66253 0.975671 8V8.00668L2.9621 8.16206L1.04584 7.00595ZM1.71828 9.4326L1.13773 9.50778C1.35992 10.5252 1.80349 11.46 2.41412 12.2602L3.29623 11.5853C2.6004 11.0582 2.07497 10.3473 1.71828 9.4326ZM3.5318 11.7515L2.62796 12.525L2.6288 12.5275C2.75744 12.6795 2.89193 12.8266 3.0331 12.9677C3.23859 13.1732 3.45578 13.3654 3.68466 13.5441L5.12979 12.4624C4.52918 12.2936 3.99624 12.0589 3.5318 11.7515ZM6.19735 12.6787C5.95427 12.6453 5.71954 12.6027 5.494 12.5526L3.95113 13.7404C5.07382 14.5332 6.43876 15.006 7.91313 15.0235V14.7963C7.02433 14.5014 6.48303 13.7296 6.19735 12.6787ZM6.38864 8.45192L6.13804 8.40597C6.14556 8.44523 6.14973 8.48617 6.14973 8.52793C6.14973 8.89297 5.85403 9.18868 5.48898 9.18868C5.12394 9.18868 4.82823 8.89297 4.82823 8.52793C4.82823 8.4018 4.86332 8.28485 4.9243 8.18461L3.60113 7.9432C3.72058 9.41004 4.52083 10.3673 6.80965 10.2078L6.38864 8.45192ZM3.05983 8.4043L2.31638 8.40848C2.41829 10.4709 4.01629 12.3471 7.02266 12.4857L6.39115 10.8802C4.78814 10.8351 3.40399 10.3807 3.05983 8.4043ZM8 0C3.5886 0 0 3.5886 0 8C0 12.4114 3.5886 16 8 16C12.4114 16 16 12.4114 16 8C16 3.5886 12.4114 0 8 0Z" fill="#736B8E"/>
</g>
<defs>
<clipPath id="clip0_1_17096">
<rect width="16" height="16" fill="white"/>
</clipPath>
</defs>
</svg>
